HIERARCHY
ROOT Hips
{
  OFFSET 48.1186 84.1951 7.46212
  CHANNELS 6 Xposition Yposition Zposition Zrotation Xrotation Yrotation
  JOINT spine
  {
    OFFSET 0 6.24479 0.359107
    CHANNELS 3 Zrotation Xrotation Yrotation
    JOINT spine1
    {
      OFFSET 0 9.06941 0
      CHANNELS 3 Zrotation Xrotation Yrotation
      JOINT spine2
      {
        OFFSET 0 8.69014 0
        CHANNELS 3 Zrotation Xrotation Yrotation
        JOINT Neck
        {
          OFFSET 0 22.3112 1.06372
          CHANNELS 3 Zrotation Xrotation Yrotation
          JOINT Head
          {
            OFFSET 0 6.74081 0
            CHANNELS 3 Zrotation Xrotation Yrotation
            End Site
            {
              OFFSET 0 16.3165 -5.38097
            }
          }
        }
        JOINT RightShoulder
        {
          OFFSET -3.65916 9.38468 -0.509514
          CHANNELS 3 Zrotation Xrotation Yrotation
          JOINT RightArm
          {
            OFFSET 0 12.3089 0
            CHANNELS 3 Zrotation Xrotation Yrotation
            JOINT RightArmRoll
            {
              OFFSET 0 6.21375 0
              CHANNELS 3 Zrotation Xrotation Yrotation
              JOINT RightForeArm
              {
                OFFSET 0 18.0985 0
                CHANNELS 3 Zrotation Xrotation Yrotation
                JOINT RightForeArmRoll
                {
                  OFFSET 0 6.97279 0
                  CHANNELS 3 Zrotation Xrotation Yrotation
                  JOINT RightHand
                  {
                    OFFSET 0 13.9929 0
                    CHANNELS 3 Zrotation Xrotation Yrotation
                    End Site
                    {
                      OFFSET 0 0 0
                    }
                  }
                }
              }
            }
          }
        }
        JOINT LeftShoulder
        {
          OFFSET 3.65916 9.38468 -0.509514
          CHANNELS 3 Zrotation Xrotation Yrotation
          JOINT LeftArm
          {
            OFFSET 0 12.3089 0
            CHANNELS 3 Zrotation Xrotation Yrotation
            JOINT LeftArmRoll
            {
              OFFSET 0 6.21375 0
              CHANNELS 3 Zrotation Xrotation Yrotation
              JOINT LeftForeArm
              {
                OFFSET 0 18.0985 0
                CHANNELS 3 Zrotation Xrotation Yrotation
                JOINT LeftForeArmRoll
                {
                  OFFSET 0 6.9728 0
                  CHANNELS 3 Zrotation Xrotation Yrotation
                  JOINT LeftHand
                  {
                    OFFSET 0 13.9929 0
                    CHANNELS 3 Zrotation Xrotation Yrotation
                    End Site
                    {
                      OFFSET 0 0 0
                    }
                  }
                }
              }
            }
          }
        }
      }
    }
  }
  JOINT RightUpLeg
  {
    OFFSET -5.53515 -1.015 -0.851454
    CHANNELS 3 Zrotation Xrotation Yrotation
    JOINT RightUpLegRoll
    {
      OFFSET 0 16.4075 0
      CHANNELS 3 Zrotation Xrotation Yrotation
      JOINT RightLeg
      {
        OFFSET 0 -20.3181 0
        CHANNELS 3 Zrotation Xrotation Yrotation
        JOINT RightLegRoll
        {
          OFFSET 0 20.3846 0
          CHANNELS 3 Zrotation Xrotation Yrotation
          JOINT RightFoot
          {
            OFFSET 0 16.9668 0
            CHANNELS 3 Zrotation Xrotation Yrotation
            JOINT RightToeBase
            {
              OFFSET 0 14.1834 0
              CHANNELS 3 Zrotation Xrotation Yrotation
              End Site
              {
                OFFSET 0.0060118 6.8689 -0.791746
              }
            }
          }
        }
      }
    }
  }
  JOINT LeftUpLeg
  {
    OFFSET 5.53515 -1.015 -0.851454
    CHANNELS 3 Zrotation Xrotation Yrotation
    JOINT LeftUpLegRoll
    {
      OFFSET 0 16.4076 0
      CHANNELS 3 Zrotation Xrotation Yrotation
      JOINT LeftLeg
      {
        OFFSET 0 20.3181 0
        CHANNELS 3 Zrotation Xrotation Yrotation
        JOINT LeftLegRoll
        {
          OFFSET 0 20.5731 0
          CHANNELS 3 Zrotation Xrotation Yrotation
          JOINT LeftFoot
          {
            OFFSET 0 16.7783 0
            CHANNELS 3 Zrotation Xrotation Yrotation
            JOINT LeftToeBase
            {
              OFFSET 0 14.1834 0
              CHANNELS 3 Zrotation Xrotation Yrotation
              End Site
              {
                OFFSET -0.0269423 6.8689 -0.791746
              }
            }
          }
        }
      }
    }
  }
}
MOTION
Frames: 7
Frame Time: 0.00208333
48.697 93.0828 7.94313 -1.16106 5.12474 -2.30563 -0.103555 -2.10025 0.108058 -0.203944 -0.197906 0.225715 -0.206707 1.44716 0.229181 -3.57356 -4.56626 -0.497658 4.1566 10.4107 -1.14637 59.1483 -6.03283 -3.72693 118.261 3.53108 8.37419 3.08116e-014 -9.14409e-015 -0 9.37955 17.7115 -2.27894 -4.21259e-006 3.75288e-006 -3 8.02922 -4.95147 0.697675 -58.0307 -12.4752 7.81865 -119.913 5.41521 -10.741 -6.47846e-006 6.478e-007 -1.24501e-007 -4.73164 23.1129 1.60746 4.84002e-006 -2.45043e-006 3 -8.02923 -4.95154 -0.697715 179.028 12.129 -2.08489 180 7.01584e-015 179.1 -179.006 14.5462 178.913 1.37099e-006 -3.52311e-006 0.0409649 -17.4891 66.7096 18.5249 8.13649 25.2327 -3.48774 -172.195 9.93464 -3.48252 4.54188e-006 -4.6773e-006 -1.03495 0.453739 -18.0983 1.11584 -1.64292e-007 1.71522e-006 -0.193057 18.1345 67.5993 -19.2103 -8.13649 25.2327 3.48773 
48.6566 93.1798 7.9761 -1.1708 5.09745 -2.29733 -0.0976817 -2.09459 0.107358 -0.192244 -0.186575 0.22377 -0.19498 1.45849 0.22704 -3.68441 -4.69529 -0.492541 4.24144 10.5053 -1.1604 58.9764 -6.15013 -3.79254 118.441 3.52258 8.31966 3.57315e-014 -1.25234e-014 -0 9.38335 17.6556 -2.27406 -4.21259e-006 3.75288e-006 -3 8.02922 -4.95147 0.697675 -57.9696 -12.5547 7.87236 -120.022 5.4305 -10.6729 -6.47846e-006 6.478e-007 -1.24501e-007 -4.74299 23.0859 1.60855 4.84002e-006 -2.45043e-006 3 -8.02923 -4.95154 -0.697715 179.038 12.0309 -2.10031 180 7.01584e-015 179.1 -178.993 14.4071 178.915 1.37099e-006 -3.52311e-006 0.0399317 -17.4997 66.7236 18.5356 8.13649 25.2327 -3.48774 -172.204 9.80454 -3.43442 4.54188e-006 -4.6773e-006 -1.03552 0.503258 -17.8481 1.11916 -1.64292e-007 1.71522e-006 -0.188234 18.1258 67.5844 -19.1983 -8.13649 25.2327 3.48773 
48.6843 93.2971 7.98332 -1.18124 5.07074 -2.28862 -0.0915971 -2.08862 0.106551 -0.180124 -0.174616 0.221593 -0.182831 1.47045 0.22466 -3.79648 -4.82584 -0.486622 4.32752 10.5956 -1.17364 58.8016 -6.26832 -3.85879 118.623 3.51754 8.26469 8.29926e-015 -4.17448e-015 -0 9.3864 17.5975 -2.26894 -4.21259e-006 3.75288e-006 -3 8.02922 -4.95147 0.697675 -57.91 -12.6337 7.92582 -120.13 5.44885 -10.6053 -6.47846e-006 6.478e-007 -1.24501e-007 -4.75336 23.0556 1.6093 4.84002e-006 -2.45043e-006 3 -8.02923 -4.95154 -0.697715 179.05 11.9382 -2.11384 180 7.01584e-015 179.1 -178.982 14.2827 178.917 1.37099e-006 -3.52311e-006 0.0390854 -17.5094 66.7366 18.5456 8.13649 25.2327 -3.48774 -172.213 9.68303 -3.38727 4.54188e-006 -4.6773e-006 -1.03612 0.553884 -17.616 1.12305 -1.64292e-007 1.71522e-006 -0.183755 18.1179 67.5706 -19.1872 -8.13649 25.2327 3.48773 
48.659 93.4026 8.01251 -1.19222 5.04523 -2.27945 -0.0853461 -2.08261 0.105692 -0.167672 -0.162579 0.219294 -0.170349 1.48249 0.222153 -3.90915 -4.95525 -0.480087 4.41437 10.6803 -1.18619 58.6257 -6.38574 -3.92472 118.804 3.51485 8.21002 -7.35503e-015 -3.18055e-015 6.36111e-015 9.3889 17.5382 -2.26368 -4.21259e-006 3.75288e-006 -3 8.02922 -4.95147 0.697675 -57.8525 -12.7106 7.97797 -120.235 5.46929 -10.539 -6.47846e-006 6.478e-007 -1.24501e-007 -4.76284 23.0225 1.60974 4.84002e-006 -2.45043e-006 3 -8.02923 -4.95154 -0.697715 179.062 11.8516 -2.12547 180 7.01584e-015 179.1 -178.973 14.1723 178.919 1.37099e-006 -3.52311e-006 0.0384031 -17.5184 66.7484 18.5548 8.13649 25.2327 -3.48774 -172.22 9.57043 -3.3415 4.54188e-006 -4.6773e-006 -1.03672 0.60485 -17.4017 1.12739 -1.64292e-007 1.71522e-006 -0.179619 18.1108 67.5581 -19.177 -8.13649 25.2327 3.48773 
48.6785 93.479 8.03643 -1.20359 5.02156 -2.26978 -0.078974 -2.07683 0.104833 -0.154978 -0.151014 0.216988 -0.157624 1.49405 0.219635 -4.02178 -5.08084 -0.473124 4.50153 10.7578 -1.19814 58.4504 -6.50075 -3.98932 118.983 3.51341 8.15641 -4.42296e-015 -1.98785e-016 -3.18055e-015 9.39105 17.4787 -2.25838 -4.21259e-006 3.75288e-006 -3 8.02922 -4.95147 0.697675 -57.7981 -12.784 8.02776 -120.336 5.49082 -10.4749 -6.47846e-006 6.478e-007 -1.24501e-007 -4.77152 22.9873 1.6099 4.84002e-006 -2.45043e-006 3 -8.02923 -4.95154 -0.697715 179.074 11.7712 -2.13516 180 7.01584e-015 179.1 -178.966 14.075 178.922 1.37099e-006 -3.52311e-006 0.0378617 -17.5263 66.759 18.563 8.13649 25.2327 -3.48774 -172.227 9.4671 -3.29755 4.54188e-006 -4.6773e-006 -1.0373 0.655398 -17.2048 1.13205 -1.64292e-007 1.71522e-006 -0.175826 18.1047 67.5469 -19.1679 -8.13649 25.2327 3.48773 
48.6501 93.5287 8.06514 -1.21521 5.00035 -2.25955 -0.0725262 -2.07157 0.104031 -0.14213 -0.140469 0.214788 -0.144746 1.5046 0.21722 -4.13375 -5.19993 -0.465921 4.58852 10.8265 -1.20959 58.2774 -6.61171 -4.05161 119.157 3.51211 8.10462 -9.39258e-015 1.98785e-015 3.18055e-015 9.39306 17.4198 -2.25315 -4.21259e-006 3.75288e-006 -3 8.02922 -4.95147 0.697675 -57.7475 -12.8521 8.07412 -120.432 5.51246 -10.414 -6.47846e-006 6.478e-007 -1.24501e-007 -4.7795 22.9504 1.60983 4.84002e-006 -2.45043e-006 3 -8.02923 -4.95154 -0.697715 179.086 11.6974 -2.14289 180 7.01584e-015 179.1 -178.961 13.99 178.924 1.37099e-006 -3.52311e-006 0.0374381 -17.5332 66.7682 18.5702 8.13649 25.2327 -3.48774 -172.232 9.37336 -3.25584 4.54188e-006 -4.6773e-006 -1.03784 0.704768 -17.0249 1.13692 -1.64292e-007 1.71522e-006 -0.172378 18.0995 67.5371 -19.16 -8.13649 25.2327 3.48773 
48.6667 93.6231 8.07132 -1.22692 4.98222 -2.24874 -0.066048 -2.06709 0.103338 -0.129216 -0.131495 0.212806 -0.131805 1.51357 0.215021 -4.24444 -5.30986 -0.458664 4.67487 10.8849 -1.22064 58.1086 -6.71699 -4.11061 119.324 3.50983 8.05541 1.3418e-015 -2.38542e-015 -0 9.39512 17.3625 -2.24808 -4.21259e-006 3.75288e-006 -3 8.02922 -4.95147 0.697675 -57.7017 -12.9136 8.11599 -120.521 5.53321 -10.3572 -6.47846e-006 6.478e-007 -1.24501e-007 -4.78688 22.9126 1.60954 4.84002e-006 -2.45043e-006 3 -8.02923 -4.95154 -0.697715 179.097 11.6308 -2.14864 180 7.01584e-015 179.1 -178.959 13.9164 178.927 1.37099e-006 -3.52311e-006 0.0371093 -17.5389 66.7758 18.5762 8.13649 25.2327 -3.48774 -172.235 9.28957 -3.21681 4.54188e-006 -4.6773e-006 -1.03832 0.752204 -16.8614 1.14187 -1.64292e-007 1.71522e-006 -0.169273 18.0952 67.5288 -19.1532 -8.13649 25.2327 3.48773 
